<svg xmlns="http://www.w3.org/2000/svg" viewBox="0 0 1200 630">
  <defs>
    <linearGradient id="ground" x1="0" y1="0" x2="0" y2="1">
      <stop offset="0" stop-color="#161614"/>
      <stop offset="1" stop-color="#070706"/>
    </linearGradient>
    <filter id="grain" x="-10%" y="-10%" width="120%" height="120%">
      <feTurbulence type="fractalNoise" baseFrequency=".8" numOctaves="2" seed="6"/>
      <feColorMatrix values="1 0 0 0 0
                             0 1 0 0 0
                             0 0 1 0 0
                             0 0 0 .075 0"/>
    </filter>
  </defs>

  <rect width="1200" height="630" fill="#030303"/>
  <path d="M0 399 C170 374 292 411 447 387 C610 362 752 408 905 379 C1032 355 1114 373 1200 360 V630 H0Z" fill="url(#ground)"/>
  <path d="M0 406 C171 382 295 419 451 394 C611 369 756 414 910 386 C1035 363 1118 380 1200 368" fill="none" stroke="#8f8d86" stroke-opacity=".28"/>

  <g fill="#f1f0eb">
    <circle cx="877" cy="152" r="2.2"/>
    <circle cx="1014" cy="88" r="1.4" opacity=".65"/>
    <circle cx="1110" cy="225" r="1.2" opacity=".45"/>
    <circle cx="742" cy="74" r="1.1" opacity=".52"/>
    <circle cx="564" cy="122" r=".9" opacity=".38"/>
  </g>

  <g font-family="'IBM Plex Mono','Courier New',monospace" font-size="16" letter-spacing="3">
    <text x="72" y="74" fill="#f1f0eb" font-weight="700">ПОЛЮС · П-6</text>
    <text x="72" y="126" fill="#92918b">85°41′ Ю · КРАТЕР ШЕКЛТОН · ЦИКЛ 14</text>
    <line x1="72" y1="99" x2="109" y2="99" stroke="#a9d7e5" stroke-width="2"/>
  </g>

  <g font-family="'Arial Narrow','Arial',sans-serif" font-weight="700">
    <text x="66" y="322" fill="#f1f0eb" font-size="164" letter-spacing="-7">ПОЛЮС</text>
    <text x="70" y="413" fill="none" stroke="#8f8d86" stroke-width="2" font-size="88" letter-spacing="-2">БОРТ П-6</text>
    <text x="70" y="503" fill="#f1f0eb" font-size="92" letter-spacing="-4">ШЕКЛТОН</text>
  </g>

  <g transform="translate(882 377)">
    <rect x="-88" y="-35" width="176" height="70" rx="9" fill="#d9b862"/>
    <rect x="-42" y="-63" width="66" height="28" rx="5" fill="#d9b862"/>
    <line x1="5" y1="-63" x2="5" y2="-104" stroke="#d9b862" stroke-width="7"/>
    <circle cx="5" cy="-111" r="15" fill="none" stroke="#f1f0eb" stroke-width="5"/>
    <g fill="#151513" stroke="#d9b862" stroke-width="7">
      <circle cx="-66" cy="51" r="28"/>
      <circle cx="0" cy="51" r="28"/>
      <circle cx="66" cy="51" r="28"/>
    </g>
    <line x1="-66" y1="35" x2="-49" y2="8" stroke="#d9b862" stroke-width="8"/>
    <line x1="0" y1="35" x2="0" y2="13" stroke="#d9b862" stroke-width="8"/>
    <line x1="66" y1="35" x2="49" y2="8" stroke="#d9b862" stroke-width="8"/>
  </g>

  <text x="1128" y="570" text-anchor="end" fill="#a9d7e5"
        font-family="'IBM Plex Mono','Courier New',monospace" font-size="15" letter-spacing="2">
    ИНТЕРАКТИВНАЯ РЕКОНСТРУКЦИЯ АРХИВА
  </text>

  <rect width="1200" height="630" filter="url(#grain)" opacity=".55"/>
</svg>
